<svg width="27" height="27" viewBox="0 0 27 27" fill="none" xmlns="http://www.w3.org/2000/svg">
    <path fill-rule="evenodd" clip-rule="evenodd" d="M8.02037 0.288002C9.43775 0.222752 9.88966 0.208252 13.5002 0.208252C17.1107 0.208252 17.5626 0.22396 18.9787 0.288002C20.3949 0.352044 21.3616 0.578002 22.2074 0.90546C23.0931 1.24017 23.8967 1.76338 24.5612 2.44004C25.2379 3.10342 25.7599 3.90575 26.0934 4.79267C26.4221 5.6385 26.6468 6.60517 26.7121 8.01892C26.7773 9.43871 26.7918 9.89063 26.7918 13.4999C26.7918 17.1104 26.7761 17.5623 26.7121 18.9797C26.648 20.3935 26.4221 21.3601 26.0934 22.206C25.7599 23.093 25.237 23.8967 24.5612 24.561C23.8967 25.2377 23.0931 25.7597 22.2074 26.0932C21.3616 26.4218 20.3949 26.6466 18.9812 26.7118C17.5626 26.7771 17.1107 26.7916 13.5002 26.7916C9.88966 26.7916 9.43775 26.7759 8.02037 26.7118C6.60662 26.6478 5.63995 26.4218 4.79412 26.0932C3.90711 25.7596 3.10345 25.2368 2.43908 24.561C1.76287 23.8972 1.23958 23.0939 0.905704 22.2072C0.578246 21.3613 0.353496 20.3947 0.288246 18.9809C0.222996 17.5611 0.208496 17.1092 0.208496 13.4999C0.208496 9.88942 0.224204 9.4375 0.288246 8.02133C0.352288 6.60517 0.578246 5.6385 0.905704 4.79267C1.24008 3.90585 1.76376 3.10259 2.44029 2.43884C3.10371 1.76277 3.90657 1.2395 4.79291 0.90546C5.63875 0.578002 6.60541 0.353252 8.01916 0.288002H8.02037ZM18.8712 2.6805C17.4695 2.61646 17.049 2.60317 13.5002 2.60317C9.95129 2.60317 9.53079 2.61646 8.12912 2.6805C6.83258 2.73971 6.12933 2.956 5.6605 3.13846C5.04062 3.38013 4.59716 3.6665 4.13195 4.13171C3.69097 4.56073 3.35159 5.08301 3.1387 5.66025C2.95625 6.12909 2.73995 6.83233 2.68075 8.12888C2.6167 9.53054 2.60341 9.95104 2.60341 13.4999C2.60341 17.0488 2.6167 17.4693 2.68075 18.871C2.73995 20.1675 2.95625 20.8708 3.1387 21.3396C3.35137 21.916 3.69091 22.4392 4.13195 22.8681C4.56091 23.3092 5.08412 23.6487 5.6605 23.8614C6.12933 24.0438 6.83258 24.2601 8.12912 24.3193C9.53079 24.3834 9.95008 24.3967 13.5002 24.3967C17.0502 24.3967 17.4695 24.3834 18.8712 24.3193C20.1677 24.2601 20.871 24.0438 21.3398 23.8614C21.9597 23.6197 22.4032 23.3333 22.8684 22.8681C23.3094 22.4392 23.649 21.916 23.8616 21.3396C24.0441 20.8708 24.2604 20.1675 24.3196 18.871C24.3836 17.4693 24.3969 17.0488 24.3969 13.4999C24.3969 9.95104 24.3836 9.53054 24.3196 8.12888C24.2604 6.83233 24.0441 6.12909 23.8616 5.66025C23.62 5.04038 23.3336 4.59692 22.8684 4.13171C22.4393 3.69075 21.9171 3.35138 21.3398 3.13846C20.871 2.956 20.1677 2.73971 18.8712 2.6805V2.6805ZM11.8025 17.5974C12.7506 17.9921 13.8063 18.0453 14.7894 17.7481C15.7724 17.4508 16.6218 16.8215 17.1924 15.9676C17.763 15.1137 18.0194 14.0882 17.9179 13.0663C17.8164 12.0443 17.3632 11.0893 16.6358 10.3643C16.1721 9.90087 15.6114 9.54602 14.9941 9.3253C14.3768 9.10458 13.7182 9.02348 13.0658 9.08783C12.4133 9.15218 11.7833 9.36038 11.221 9.69745C10.6587 10.0345 10.1781 10.4921 9.8139 11.0372C9.44966 11.5822 9.21081 12.2013 9.11454 12.8498C9.01826 13.4983 9.06697 14.16 9.25715 14.7874C9.44733 15.4148 9.77424 15.9922 10.2144 16.4781C10.6545 16.964 11.1969 17.3463 11.8025 17.5974ZM8.66925 8.669C9.30365 8.0346 10.0568 7.53136 10.8857 7.18802C11.7146 6.84468 12.603 6.66797 13.5002 6.66797C14.3973 6.66797 15.2857 6.84468 16.1146 7.18802C16.9435 7.53136 17.6967 8.0346 18.3311 8.669C18.9655 9.30341 19.4687 10.0566 19.8121 10.8854C20.1554 11.7143 20.3321 12.6027 20.3321 13.4999C20.3321 14.3971 20.1554 15.2855 19.8121 16.1144C19.4687 16.9433 18.9655 17.6964 18.3311 18.3308C17.0498 19.6121 15.3121 20.3319 13.5002 20.3319C11.6882 20.3319 9.95048 19.6121 8.66925 18.3308C7.38801 17.0496 6.66821 15.3119 6.66821 13.4999C6.66821 11.688 7.38801 9.95024 8.66925 8.669V8.669ZM21.8473 7.68542C22.0045 7.53712 22.1304 7.35878 22.2174 7.16097C22.3045 6.96316 22.351 6.74989 22.3541 6.53379C22.3573 6.3177 22.317 6.10316 22.2358 5.9029C22.1545 5.70263 22.0339 5.5207 21.8811 5.36788C21.7283 5.21506 21.5464 5.09446 21.3461 5.01321C21.1458 4.93196 20.9313 4.89172 20.7152 4.89487C20.4991 4.89802 20.2858 4.9445 20.088 5.03155C19.8902 5.1186 19.7119 5.24446 19.5636 5.40167C19.2752 5.70741 19.1173 6.11352 19.1234 6.53379C19.1295 6.95406 19.2992 7.3554 19.5964 7.6526C19.8936 7.94981 20.2949 8.11949 20.7152 8.12561C21.1355 8.13174 21.5416 7.97383 21.8473 7.68542V7.68542Z" fill="white"/>
</svg>
