<svg width="30" height="28" viewBox="0 0 30 28" fill="none" xmlns="http://www.w3.org/2000/svg">
    <path fill-rule="evenodd" clip-rule="evenodd" d="M11.4698 9.95875H16.7755V12.4254C17.5398 11.0067 19.4998 9.73208 22.4441 9.73208C28.0884 9.73208 29.4284 12.5561 29.4284 17.7374V27.3334H23.7141V18.9174C23.7141 15.9667 22.9498 14.3027 21.0041 14.3027C18.3055 14.3027 17.1841 16.0961 17.1841 18.9161V27.3334H11.4698V9.95875ZM1.67122 27.1067H7.3855V9.73208H1.67122V27.1067ZM8.20408 4.06675C8.20429 4.51378 8.1093 4.95639 7.92463 5.36886C7.73996 5.78133 7.46929 6.15543 7.12836 6.46942C6.43751 7.11025 5.50238 7.46895 4.52836 7.46675C3.55606 7.46614 2.62309 7.10835 1.93122 6.47075C1.59152 6.1557 1.32177 5.78118 1.13742 5.36866C0.953079 4.95613 0.857761 4.51371 0.856934 4.06675C0.856934 3.16408 1.24265 2.30008 1.93265 1.66275C2.62391 1.02429 3.55728 0.666349 4.52979 0.666748C5.50408 0.666748 6.43836 1.02542 7.12836 1.66275C7.81693 2.30008 8.20408 3.16408 8.20408 4.06675Z" fill="white"/>
</svg>
